<mxfile host="app.diagrams.net" modified="2024-10-03T07:18:38.834Z" agent="Mozilla/5.0 (Windows NT 10.0; Win64; x64; rv:130.0) Gecko/20100101 Firefox/130.0" etag="JzAC0mSP2NdJweiJ9PJM" version="24.4.2" type="device">
  <diagram name="Page-1" id="fezu510ksEimt2VE1zf5">
    <mxGraphModel dx="1434" dy="774" grid="1" gridSize="10" guides="1" tooltips="1" connect="1" arrows="1" fold="1" page="1" pageScale="1" pageWidth="980" pageHeight="1390" math="0" shadow="0">
      <root>
        <mxCell id="0" />
        <mxCell id="1" parent="0" />
        <mxCell id="C-uVhG2AzJIhZOZEXnHX-17" value="" style="ellipse;shape=cloud;whiteSpace=wrap;html=1;" vertex="1" parent="1">
          <mxGeometry x="240" width="440" height="260" as="geometry" />
        </mxCell>
        <mxCell id="C-uVhG2AzJIhZOZEXnHX-1" value="MQTT" style="ellipse;shape=cloud;whiteSpace=wrap;html=1;" vertex="1" parent="1">
          <mxGeometry x="295" y="80" width="120" height="80" as="geometry" />
        </mxCell>
        <mxCell id="C-uVhG2AzJIhZOZEXnHX-2" value="&lt;div&gt;Mazemap:&lt;/div&gt;&lt;div&gt;Lokasjoner&lt;br&gt;&lt;/div&gt;" style="shape=cylinder3;whiteSpace=wrap;html=1;boundedLbl=1;backgroundOutline=1;size=10;" vertex="1" parent="1">
          <mxGeometry x="530" y="80" width="75" height="80" as="geometry" />
        </mxCell>
        <mxCell id="C-uVhG2AzJIhZOZEXnHX-3" value="" style="endArrow=classic;dashed=1;html=1;dashPattern=1 3;strokeWidth=1;rounded=0;entryX=0;entryY=0.5;entryDx=0;entryDy=0;entryPerimeter=0;startArrow=classic;startFill=1;endFill=1;exitX=0.942;exitY=0.513;exitDx=0;exitDy=0;exitPerimeter=0;endSize=6;" edge="1" parent="1" source="C-uVhG2AzJIhZOZEXnHX-1" target="C-uVhG2AzJIhZOZEXnHX-2">
          <mxGeometry width="50" height="50" relative="1" as="geometry">
            <mxPoint x="535" y="270" as="sourcePoint" />
            <mxPoint x="585" y="220" as="targetPoint" />
          </mxGeometry>
        </mxCell>
        <mxCell id="C-uVhG2AzJIhZOZEXnHX-4" value="" style="endArrow=none;dashed=1;html=1;dashPattern=1 3;strokeWidth=2;rounded=0;" edge="1" parent="1">
          <mxGeometry width="50" height="50" relative="1" as="geometry">
            <mxPoint x="800" y="119.5" as="sourcePoint" />
            <mxPoint x="880" y="119.5" as="targetPoint" />
          </mxGeometry>
        </mxCell>
        <mxCell id="C-uVhG2AzJIhZOZEXnHX-6" value="" style="endArrow=none;html=1;rounded=0;" edge="1" parent="1">
          <mxGeometry width="50" height="50" relative="1" as="geometry">
            <mxPoint x="800" y="159.5" as="sourcePoint" />
            <mxPoint x="880" y="159.5" as="targetPoint" />
          </mxGeometry>
        </mxCell>
        <mxCell id="C-uVhG2AzJIhZOZEXnHX-7" value="Tråløs kobling" style="text;html=1;align=center;verticalAlign=middle;whiteSpace=wrap;rounded=0;" vertex="1" parent="1">
          <mxGeometry x="780" y="89.5" width="120" height="30" as="geometry" />
        </mxCell>
        <mxCell id="C-uVhG2AzJIhZOZEXnHX-8" value="Fysisk kobling" style="text;html=1;align=center;verticalAlign=middle;whiteSpace=wrap;rounded=0;" vertex="1" parent="1">
          <mxGeometry x="780" y="129.5" width="120" height="30" as="geometry" />
        </mxCell>
        <mxCell id="C-uVhG2AzJIhZOZEXnHX-10" value="" style="endArrow=none;html=1;rounded=0;" edge="1" parent="1">
          <mxGeometry width="50" height="50" relative="1" as="geometry">
            <mxPoint x="800" y="200" as="sourcePoint" />
            <mxPoint x="920" y="200" as="targetPoint" />
          </mxGeometry>
        </mxCell>
        <mxCell id="C-uVhG2AzJIhZOZEXnHX-11" value="" style="endArrow=none;html=1;rounded=0;" edge="1" parent="1">
          <mxGeometry width="50" height="50" relative="1" as="geometry">
            <mxPoint x="800" y="39.5" as="sourcePoint" />
            <mxPoint x="800" y="200" as="targetPoint" />
          </mxGeometry>
        </mxCell>
        <mxCell id="C-uVhG2AzJIhZOZEXnHX-12" value="" style="endArrow=none;html=1;rounded=0;" edge="1" parent="1">
          <mxGeometry width="50" height="50" relative="1" as="geometry">
            <mxPoint x="800" y="79.5" as="sourcePoint" />
            <mxPoint x="920" y="79.5" as="targetPoint" />
            <Array as="points" />
          </mxGeometry>
        </mxCell>
        <mxCell id="C-uVhG2AzJIhZOZEXnHX-13" value="" style="endArrow=none;html=1;rounded=0;" edge="1" parent="1">
          <mxGeometry width="50" height="50" relative="1" as="geometry">
            <mxPoint x="920" y="39.5" as="sourcePoint" />
            <mxPoint x="920" y="199.5" as="targetPoint" />
          </mxGeometry>
        </mxCell>
        <mxCell id="C-uVhG2AzJIhZOZEXnHX-14" value="" style="endArrow=none;html=1;rounded=0;" edge="1" parent="1">
          <mxGeometry width="50" height="50" relative="1" as="geometry">
            <mxPoint x="800" y="39.5" as="sourcePoint" />
            <mxPoint x="920" y="39.5" as="targetPoint" />
          </mxGeometry>
        </mxCell>
        <mxCell id="C-uVhG2AzJIhZOZEXnHX-15" value="Legend" style="text;html=1;align=center;verticalAlign=middle;whiteSpace=wrap;rounded=0;fillColor=none;strokeWidth=1;fontStyle=1;fontSize=19;" vertex="1" parent="1">
          <mxGeometry x="800" y="39.5" width="120" height="40" as="geometry" />
        </mxCell>
        <mxCell id="C-uVhG2AzJIhZOZEXnHX-20" value="Sko ESP32" style="shape=process;whiteSpace=wrap;html=1;backgroundOutline=1;size=0.125;" vertex="1" parent="1">
          <mxGeometry x="295" y="380" width="125" height="60" as="geometry" />
        </mxCell>
        <mxCell id="C-uVhG2AzJIhZOZEXnHX-21" value="" style="endArrow=classic;html=1;rounded=0;startArrow=classic;startFill=1;endFill=1;entryX=0.55;entryY=0.95;entryDx=0;entryDy=0;entryPerimeter=0;exitX=0.5;exitY=0;exitDx=0;exitDy=0;dashed=1;" edge="1" parent="1" source="C-uVhG2AzJIhZOZEXnHX-20" target="C-uVhG2AzJIhZOZEXnHX-1">
          <mxGeometry width="50" height="50" relative="1" as="geometry">
            <mxPoint x="240" y="310" as="sourcePoint" />
            <mxPoint x="370" y="300" as="targetPoint" />
          </mxGeometry>
        </mxCell>
        <mxCell id="C-uVhG2AzJIhZOZEXnHX-48" style="edgeStyle=orthogonalEdgeStyle;rounded=0;orthogonalLoop=1;jettySize=auto;html=1;exitX=0;exitY=0.5;exitDx=0;exitDy=0;entryX=1;entryY=0.5;entryDx=0;entryDy=0;startArrow=classic;startFill=1;endArrow=none;endFill=0;" edge="1" parent="1" source="C-uVhG2AzJIhZOZEXnHX-22" target="C-uVhG2AzJIhZOZEXnHX-47">
          <mxGeometry relative="1" as="geometry" />
        </mxCell>
        <mxCell id="C-uVhG2AzJIhZOZEXnHX-22" value="Kontroller klokke&lt;br&gt;ESP32" style="shape=process;whiteSpace=wrap;html=1;backgroundOutline=1;" vertex="1" parent="1">
          <mxGeometry x="295" y="640" width="125" height="60" as="geometry" />
        </mxCell>
        <mxCell id="C-uVhG2AzJIhZOZEXnHX-28" value="" style="curved=1;endArrow=classic;html=1;rounded=0;exitX=0;exitY=0.5;exitDx=0;exitDy=0;entryX=1;entryY=0.25;entryDx=0;entryDy=0;" edge="1" parent="1" target="C-uVhG2AzJIhZOZEXnHX-20">
          <mxGeometry width="50" height="50" relative="1" as="geometry">
            <mxPoint x="560" y="320" as="sourcePoint" />
            <mxPoint x="720" y="440" as="targetPoint" />
            <Array as="points">
              <mxPoint x="500" y="310" />
              <mxPoint x="510" y="400" />
            </Array>
          </mxGeometry>
        </mxCell>
        <mxCell id="C-uVhG2AzJIhZOZEXnHX-30" value="Avstand sensor" style="shape=hexagon;perimeter=hexagonPerimeter2;whiteSpace=wrap;html=1;fixedSize=1;size=20;" vertex="1" parent="1">
          <mxGeometry x="560" y="280" width="120" height="80" as="geometry" />
        </mxCell>
        <mxCell id="C-uVhG2AzJIhZOZEXnHX-31" value="Encoder" style="shape=hexagon;perimeter=hexagonPerimeter2;whiteSpace=wrap;html=1;fixedSize=1;" vertex="1" parent="1">
          <mxGeometry x="560" y="550" width="120" height="80" as="geometry" />
        </mxCell>
        <mxCell id="C-uVhG2AzJIhZOZEXnHX-32" value="" style="curved=1;endArrow=classic;html=1;rounded=0;entryX=1;entryY=0.25;entryDx=0;entryDy=0;exitX=0;exitY=0.5;exitDx=0;exitDy=0;" edge="1" parent="1" source="C-uVhG2AzJIhZOZEXnHX-31">
          <mxGeometry width="50" height="50" relative="1" as="geometry">
            <mxPoint x="560" y="580" as="sourcePoint" />
            <mxPoint x="420" y="655" as="targetPoint" />
            <Array as="points">
              <mxPoint x="500" y="580" />
              <mxPoint x="510" y="660" />
            </Array>
          </mxGeometry>
        </mxCell>
        <mxCell id="C-uVhG2AzJIhZOZEXnHX-35" value="Vibrasjons &lt;br&gt;motor" style="shape=parallelogram;perimeter=parallelogramPerimeter;whiteSpace=wrap;html=1;fixedSize=1;" vertex="1" parent="1">
          <mxGeometry x="560" y="440" width="120" height="60" as="geometry" />
        </mxCell>
        <mxCell id="C-uVhG2AzJIhZOZEXnHX-36" value="" style="curved=1;endArrow=classic;html=1;rounded=0;entryX=0;entryY=0.5;entryDx=0;entryDy=0;exitX=1;exitY=0.75;exitDx=0;exitDy=0;" edge="1" parent="1" source="C-uVhG2AzJIhZOZEXnHX-20" target="C-uVhG2AzJIhZOZEXnHX-35">
          <mxGeometry width="50" height="50" relative="1" as="geometry">
            <mxPoint x="670" y="640" as="sourcePoint" />
            <mxPoint x="720" y="590" as="targetPoint" />
            <Array as="points">
              <mxPoint x="500" y="410" />
              <mxPoint x="490" y="480" />
            </Array>
          </mxGeometry>
        </mxCell>
        <mxCell id="C-uVhG2AzJIhZOZEXnHX-37" value="NFC avleser" style="shape=hexagon;perimeter=hexagonPerimeter2;whiteSpace=wrap;html=1;fixedSize=1;" vertex="1" parent="1">
          <mxGeometry x="710" y="360" width="120" height="80" as="geometry" />
        </mxCell>
        <mxCell id="C-uVhG2AzJIhZOZEXnHX-38" value="" style="curved=1;endArrow=none;html=1;rounded=0;entryX=0;entryY=0.5;entryDx=0;entryDy=0;exitX=1;exitY=0.5;exitDx=0;exitDy=0;startArrow=classic;startFill=1;endFill=0;" edge="1" parent="1" source="C-uVhG2AzJIhZOZEXnHX-20" target="C-uVhG2AzJIhZOZEXnHX-37">
          <mxGeometry width="50" height="50" relative="1" as="geometry">
            <mxPoint x="670" y="640" as="sourcePoint" />
            <mxPoint x="720" y="590" as="targetPoint" />
            <Array as="points">
              <mxPoint x="550" y="410" />
              <mxPoint x="610" y="390" />
            </Array>
          </mxGeometry>
        </mxCell>
        <mxCell id="C-uVhG2AzJIhZOZEXnHX-39" value="" style="endArrow=classic;html=1;rounded=0;entryX=0.5;entryY=1;entryDx=0;entryDy=0;exitX=0.5;exitY=0;exitDx=0;exitDy=0;startArrow=classic;startFill=1;dashed=1;" edge="1" parent="1" target="C-uVhG2AzJIhZOZEXnHX-20">
          <mxGeometry width="50" height="50" relative="1" as="geometry">
            <mxPoint x="357.5" y="640" as="sourcePoint" />
            <mxPoint x="720" y="590" as="targetPoint" />
          </mxGeometry>
        </mxCell>
        <mxCell id="C-uVhG2AzJIhZOZEXnHX-40" value="&lt;div style=&quot;line-height: 100%;&quot;&gt;E&lt;/div&gt;&lt;div style=&quot;line-height: 100%;&quot;&gt;S&lt;/div&gt;&lt;div style=&quot;line-height: 100%;&quot;&gt;P&lt;/div&gt;&lt;div style=&quot;line-height: 100%;&quot;&gt;N&lt;/div&gt;&lt;div style=&quot;line-height: 100%;&quot;&gt;O&lt;/div&gt;&lt;div style=&quot;line-height: 100%;&quot;&gt;W&lt;/div&gt;" style="text;html=1;align=center;verticalAlign=middle;whiteSpace=wrap;rounded=0;" vertex="1" parent="1">
          <mxGeometry x="350" y="520" width="40" height="30" as="geometry" />
        </mxCell>
        <mxCell id="C-uVhG2AzJIhZOZEXnHX-41" value="&lt;div style=&quot;line-height: 100%;&quot;&gt;W&lt;/div&gt;&lt;div style=&quot;line-height: 100%;&quot;&gt;I&lt;/div&gt;&lt;div style=&quot;line-height: 100%;&quot;&gt;F&lt;/div&gt;&lt;div style=&quot;line-height: 100%;&quot;&gt;I&lt;br&gt;&lt;/div&gt;" style="text;html=1;align=center;verticalAlign=middle;whiteSpace=wrap;rounded=0;" vertex="1" parent="1">
          <mxGeometry x="340" y="260" width="60" height="30" as="geometry" />
        </mxCell>
        <mxCell id="C-uVhG2AzJIhZOZEXnHX-46" style="edgeStyle=orthogonalEdgeStyle;rounded=0;orthogonalLoop=1;jettySize=auto;html=1;exitX=1;exitY=0.5;exitDx=0;exitDy=0;entryX=0;entryY=0.5;entryDx=0;entryDy=0;" edge="1" parent="1" source="C-uVhG2AzJIhZOZEXnHX-45" target="C-uVhG2AzJIhZOZEXnHX-20">
          <mxGeometry relative="1" as="geometry" />
        </mxCell>
        <mxCell id="C-uVhG2AzJIhZOZEXnHX-45" value="Batteri:&lt;br&gt;.......mAh" style="ellipse;whiteSpace=wrap;html=1;" vertex="1" parent="1">
          <mxGeometry x="40" y="370" width="120" height="80" as="geometry" />
        </mxCell>
        <mxCell id="C-uVhG2AzJIhZOZEXnHX-47" value="Batteri:&lt;br&gt;.......mAh" style="ellipse;whiteSpace=wrap;html=1;" vertex="1" parent="1">
          <mxGeometry x="40" y="630" width="120" height="80" as="geometry" />
        </mxCell>
      </root>
    </mxGraphModel>
  </diagram>
</mxfile>
